<svg xmlns:xlink="http://www.w3.org/1999/xlink" xmlns="http://www.w3.org/2000/svg" x="0px" y="0px" width="1125" height="732" viewBox="0 0 1125 732" xml:space="preserve" class="homePageSliderSvg"><path fill="#CDCCFF" d="M1094.8 436.2c-16.35-45.58-42.09-59.45-66.58-88.68-29.9-35.71-50.07-61.66-42.31-107.59 12.69-75.05 18.12-262.21-180.56-237.74C734.14 10.96 677.87 65.53 636.93 120c-34.83 46.35-97.49 50.44-147.93 61.24-61.97 13.28-125.09 33.33-182.43 62.72C188.5 304.48 153.23 391.48 158.05 502.8c1.46 33.63 6.21 86.61 63.03 148.59 76.68 83.66 188.1 94.87 322.21 56.44 30.7-8.79 59.71-22.59 89.91-32.97a423.985 423.985 0 0197.04-21.07c77.03-7.45 156.87 6.02 230.76-16.97 39.06-12.16 74.95-34.41 103.21-64.01 35.29-36.96 47.84-88.5 30.59-136.61z"></path><path fill="#71BF9D" d="M912.79 500.38c-3.23-16.62-34.12-19.39-34.12-19.39s18.05-30.1 5.25-43.74c-12.8-13.63-42.22 18.39-42.22 18.39s-9.71-20.23-24.16 0c0 0-24.07-18.39-44.89-8.94-14.87 6.75-12.68 24.57-10.21 34.22H353.61c-.34-.72-.77-1.41-1.32-2.06-13.81-16.67-53.86-8.09-53.86-8.09s16.73-41.31-10.85-53.83c-27.59-12.52-59.48 11.84-59.48 11.84-19.14-26.81-32.01 0-32.01 0s-38.98-42.42-55.94-24.36c-16.96 18.06 6.95 57.95 6.95 57.95s-40.93 3.67-45.21 25.69c-4.27 22.02 70.82 44.88 70.82 44.88l686.64 1.31c0 .01 56.67-17.25 53.44-33.87z"></path><g><path fill="#12D8A8" d="M515.96 350.91c-104.56-1.64-384.22 84.92-418.33 0-28.11-69.98 77.01-64.62 83.12-122.56 6.11-57.94-21.26-82.62 22.38-109.45 43.63-26.83 114.74 10.42 161.7-26.83C411.78 54.84 436.29 27.7 542 14.83 647.7 1.95 725.94 121.05 771.16 132.85c45.23 11.8 110.02-18.24 141.8 18.24 31.78 36.48-70.9 117.22-48.9 150.89 22 33.67 75.88 51.91 55.05 99.12-20.82 47.22-301.36-48.59-403.15-50.19z"></path></g><g><path fill="#FFFFFF" stroke="#764582" stroke-width="0.9736px" stroke-miterlimit="10" d="M796.26 469.26H244.11c-2.05 0-3.71-1.66-3.71-3.71V163.98c0-2.05 1.66-3.71 3.71-3.71h552.15c2.05 0 3.71 1.66 3.71 3.71v301.57c-.01 2.05-1.67 3.71-3.71 3.71z"></path><path fill="#764582" d="M271.59 186.76h35.79v-2.11h-35.79v2.11zm-8.42 1.05h4.21v-4.21h-4.21v4.21zm8.42 10.53h35.79v-2.11h-35.79v2.11zm-8.42 1.05h4.21v-4.21h-4.21v4.21zm8.42 10.53h35.79v-2.1h-35.79v2.1zm-8.42 1.05h4.21v-4.21h-4.21v4.21z"></path><path fill="#FFFFFF" stroke="#764582" stroke-width="1.0244px" stroke-miterlimit="10" d="M395.71 383.66H289.56c-14.57 0-26.39-11.81-26.39-26.39V255.98c0-14.57 11.81-26.39 26.39-26.39h106.15c14.57 0 26.39 11.81 26.39 26.39v101.29c-.01 14.57-11.82 26.39-26.39 26.39zM574.22 383.66H468.07c-14.58 0-26.39-11.81-26.39-26.39V255.98c0-14.57 11.81-26.39 26.39-26.39h106.15c14.57 0 26.38 11.81 26.38 26.39v101.29c0 14.57-11.81 26.39-26.38 26.39zM752.73 383.66H646.58c-14.57 0-26.39-11.81-26.39-26.39V255.98c0-14.57 11.82-26.39 26.39-26.39h106.15c14.57 0 26.38 11.81 26.38 26.39v101.29c0 14.57-11.81 26.39-26.38 26.39z"></path><path fill="#764582" d="M740.22 199.36l-2.67-17.8a.998.998 0 00-.98-.85l-4.78-.03.01-2.21 4.78.03c1.59.01 2.92 1.16 3.15 2.73l.3 1.98 30.18.19-3.1 14.04-26.89 1.92zm.15-13.94l1.74 11.58 23.21-1.66 2.16-9.76-27.11-.16z"></path><path fill="#764582" d="M767.53 203.54l-26.09-.15c-.56 0-1.09-.25-1.45-.68-.36-.43-.51-.99-.43-1.54l.51-3.17 2.18.35-.46 2.83 25.74.15v2.21z"></path><path fill="none" stroke="#764582" stroke-width="1.265px" stroke-miterlimit="10" d="M748.1 207.91a2.975 2.975 0 01-3 2.96 2.975 2.975 0 01-2.96-3 2.981 2.981 0 015.96.04z"></path><circle fill="none" stroke="#764582" stroke-width="1.265px" stroke-miterlimit="10" cx="760.75" cy="207.99" r="2.98"></circle><g><path fill="#E2E2E2" d="M577.72 309l4.14 1.09c2.35 1.25 2.23 7.51.29 9.44 0 0-16.72 9.78-65.69 10.6-28.17-.54-46.99-5.36-47.86-7.27-.87-1.91-.95-6.19-.78-9.22l5.31-6.19L577.72 309z"></path><path fill="#FD6141" d="M478.29 286.17s-5.52 5.3-6.17 9.66c-.94 6.27-2 9.38-1.32 15.71 0 0 15.88 6.19 42.34 6.5 13.06.15 31.79-.64 45.5-3.08 11.67-2.08 23.23-4.87 23.23-4.87-3.37-11.79-13.56-7.41-28.08-12.01-9.88-3.13-33.4-22.54-33.4-22.54s-5.45 4.04-5.75 6.13c-.19 1.31 2.41 4.73 2.41 4.73s-.65 11.15-11.78 11.89c-10.85.71-26.98-12.12-26.98-12.12z"></path><path fill="#E2E2E2" d="M533.87 285.97l-4.54 7.34c-.62.87-3.34-1.09-2.72-1.96l4.21-7.75c.9-1.16 3.96 1.2 3.05 2.37zM540.48 289.88l-4.78 7.78c-.58 1.31-3.63-.05-3.05-1.36l4.77-8.79c.92-1.17 3.97 1.19 3.06 2.37zM547.1 293.78l-4.84 7.82c-.52 1.1-3.51-.29-3-1.4l4.78-8.79c.91-1.17 3.96 1.19 3.06 2.37zM520.07 290.03c.09-2.15 3.55-2 3.46.14l-1.38 13.04c0 1.88-1.98 1.88-1.98 0l-.1-13.18z"></path></g><g><path fill="#E2E2E2" d="M394.71 309l4.14 1.09c2.35 1.25 2.23 7.51.29 9.44 0 0-16.72 9.78-65.69 10.6-28.17-.54-46.99-5.36-47.86-7.27-.87-1.91-.95-6.19-.77-9.22l5.31-6.19L394.71 309z"></path><path fill="#FFD25A" d="M295.27 286.17s-5.52 5.3-6.17 9.66c-.94 6.27-2 9.38-1.32 15.71 0 0 15.88 6.19 42.34 6.5 13.06.15 31.8-.64 45.5-3.08 11.66-2.08 23.23-4.87 23.23-4.87-3.37-11.79-13.56-7.41-28.08-12.01-9.88-3.13-33.4-22.54-33.4-22.54s-5.45 4.04-5.75 6.13c-.19 1.31 2.41 4.73 2.41 4.73s-.65 11.15-11.78 11.89c-10.84.71-26.98-12.12-26.98-12.12z"></path><path fill="none" stroke="#EFE9DA" stroke-width="1.1573px" stroke-miterlimit="10" d="M325 318.15s1.59-5.82 7.17-8.45c6.25-2.95 21.11 2.62 29.33-1.94 2.42-1.34 8.65-6.87 8.65-6.87M290.54 292.39s8.81 3.95 12.91 9.16c1.85 2.35 4.42 14.96 4.42 14.96"></path></g><g><path fill="#E2E2E2" d="M752.36 309l4.14 1.09c2.35 1.25 2.23 7.51.29 9.44 0 0-16.72 9.78-65.69 10.6-28.17-.54-46.99-5.36-47.86-7.27-.87-1.91-.95-6.19-.77-9.22l5.31-6.19L752.36 309z"></path><path fill="#71BF9D" d="M652.93 286.17s-5.52 5.3-6.17 9.66c-.94 6.27-2 9.38-1.32 15.71 0 0 15.88 6.19 42.34 6.5 13.06.15 31.8-.64 45.51-3.08 11.66-2.08 23.23-4.87 23.23-4.87-3.37-11.79-13.56-7.41-28.08-12.01-9.88-3.13-33.4-22.54-33.4-22.54s-5.45 4.04-5.75 6.13c-.19 1.31 2.41 4.73 2.41 4.73s-.65 11.15-11.78 11.89c-10.85.71-26.99-12.12-26.99-12.12z"></path><path fill="#E2E2E2" d="M708.52 285.97l-4.54 7.34c-.62.87-3.34-1.09-2.72-1.96l4.21-7.75c.9-1.16 3.96 1.2 3.05 2.37zM715.13 289.88l-4.77 7.78c-.58 1.31-3.63-.05-3.06-1.36l4.77-8.79c.91-1.17 3.97 1.19 3.06 2.37zM721.74 293.78l-4.83 7.82c-.51 1.1-3.51-.29-3-1.4l4.77-8.79c.91-1.17 3.97 1.19 3.06 2.37zM694.71 290.03c.09-2.15 3.55-2 3.47.14l-1.37 13.04c0 1.88-1.98 1.88-1.98 0l-.12-13.18z"></path></g><g fill="#764582"><path d="M458.88 257.95v.18c0 .9-.22 1.29-.74 1.29h-5.06c-.52 0-.74-.39-.74-1.29v-.18c0-.9.22-1.29.74-1.29h5.06c.52 0 .74.38.74 1.29zM470.61 250.95c0 3.59-1.98 4.34-3.72 4.34-1.74 0-3.72-.75-3.72-4.34s1.98-4.34 3.72-4.34c1.74-.01 3.72.75 3.72 4.34zm-4.91 0c0 1.01.22 2.22 1.19 2.22s1.17-1.22 1.17-2.22c0-1.01-.2-2.12-1.17-2.12s-1.19 1.11-1.19 2.12zm11.82-3.83c0 .08-.05.21-.12.36l-8.85 16.74c-.25.46-.57.73-1.09.73h-1.09c-.35 0-.52-.16-.52-.34 0-.1.05-.23.12-.39l8.85-16.74c.25-.47.57-.73 1.09-.73H477c.35.01.52.17.52.37zm2.68 13.65c0 3.59-1.98 4.34-3.72 4.34-1.74 0-3.72-.75-3.72-4.34s1.98-4.34 3.72-4.34c1.73-.01 3.72.74 3.72 4.34zm-4.91 0c0 1.01.22 2.22 1.19 2.22.96 0 1.16-1.21 1.16-2.22 0-1.01-.2-2.12-1.16-2.12-.97 0-1.19 1.11-1.19 2.12z" fill="#764582"></path></g><g><path fill="#FD6141" d="M564.85 342.4v1.71c2.43.04 6.73 1.02 6.73 2.43 0 .64-.93 2.26-1.36 2.26-.64 0-2.17-1.53-5.37-1.62v9.93c3.79 1.36 8.14 2.9 8.14 8.78 0 4.85-3.15 7.93-8.14 8.35v2.13c0 .47-.26.68-.85.68-.6 0-.85-.21-.85-.68v-2.09c-4.82-.13-8.44-1.96-8.44-3.11 0-.68 1.02-2.3 1.49-2.3.51 0 2.81 2.21 6.94 2.34v-10.99c-3.75-1.45-7.88-2.94-7.88-8.43 0-4.18 3.06-7.07 7.88-7.58v-1.79c0-.47.26-.68.85-.68.6-.02.86.19.86.66zm-5.71 9.54c0 2.43 1.75 3.58 4.01 4.51v-9.16c-2.43.43-4.01 1.97-4.01 4.65zm5.71 19.13c2.51-.47 4.26-2.43 4.26-5.2 0-2.68-1.92-3.96-4.26-4.98v10.18zM545.67 375.64h-68.13c-3.79 0-6.87-3.08-6.87-6.87v-1.02c0-3.8 3.08-6.87 6.87-6.87h68.13c3.79 0 6.87 3.07 6.87 6.87v1.02c-.01 3.8-3.08 6.87-6.87 6.87z"></path></g></g><g><path fill="#E4BCE8" d="M1039.32 645.38H13.67l159.04-127.04c3.22-2.57 7.33-3.99 11.57-3.99H868.7c4.25 0 8.35 1.42 11.57 3.99l159.05 127.04z"></path><path fill="#9D68AA" d="M937.65 634.02L115.34 634.02 231.12 525.71 821.88 525.71z"></path><path fill="#FFFFFF" d="M927.56 634.02L125.43 634.02 238.36 530.36 814.63 530.36z"></path><path fill="#9D68AA" d="M1014.32 679.46H38.67c-13.81 0-25-11.19-25-24.99v-9.09h1025.65v9.09c0 13.8-11.19 24.99-25 24.99z"></path></g><g><path fill="#FFFFFF" stroke="#764582" stroke-width="0.9736px" stroke-miterlimit="10" d="M836.23 124.58H271.26c-12.9 0-23.36-10.46-23.36-23.37v-3.46c0-12.9 10.46-23.36 23.36-23.36h564.97c12.9 0 23.37 10.46 23.37 23.36v3.46c0 12.91-10.47 23.37-23.37 23.37z"></path><path fill="#A1ABAD" d="M370.85 112.61h-49.23c-6.37 0-11.53-5.16-11.53-11.53 0-6.37 5.16-11.53 11.53-11.53h49.23c6.37 0 11.53 5.16 11.53 11.53 0 6.37-5.17 11.53-11.53 11.53z"></path><circle fill="#FFFFFF" stroke="#764582" stroke-width="0.9736px" stroke-miterlimit="10" cx="155.99" cy="99.49" r="25.1"></circle><circle fill="#FFFFFF" stroke="#764582" stroke-width="0.9736px" stroke-miterlimit="10" cx="214.49" cy="99.49" r="25.1"></circle><path fill="#FFCC5A" stroke="#764582" stroke-width="0.9736px" stroke-miterlimit="10" d="M894.39 73.13L902.68 90.86 922.1 93.27 907.81 106.63 911.52 125.85 894.39 116.38 877.26 125.85 880.97 106.63 866.67 93.27 886.1 90.86z"></path><path fill="#764582" d="M159.09 84.19L143.21 99.92 159.09 115.96 162.12 112.93 149.26 99.92 162.12 87.22z"></path><path fill="#764582" d="M212.21 115.96L228.09 100.23 212.21 84.19 209.19 87.22 222.04 100.23 209.19 112.93z"></path><path fill="#764582" d="M299.46 113.9l-10.12-10c1.41-2.12 2.18-4.64 2.17-7.18-.03-7.18-5.97-13.05-13.23-13.09-3.42-.01-6.87 1.36-9.32 3.79a12.927 12.927 0 00-3.83 9.22c.03 7.18 5.97 13.05 13.23 13.09h.06c2.56 0 5.1-.77 7.25-2.18l10.11 10 3.68-3.65zm-11.89-17.18c.01 2.4-.96 4.75-2.68 6.44a9.314 9.314 0 01-6.5 2.66h-.04c-5.1-.03-9.27-4.15-9.29-9.18-.01-2.4.96-4.75 2.68-6.44a9.28 9.28 0 016.53-2.66c5.11.03 9.28 4.15 9.3 9.18z"></path><path fill="#9D68AA" d="M825.61 100.08l-5.69 5.72c-.67.68-.67 1.77 0 2.45.68.68 1.77.68 2.44 0l5.69-5.72 5.69 5.72c.68.68 1.77.68 2.44 0 .68-.68.68-1.77 0-2.45l-5.69-5.72 5.69-5.72c.68-.68.68-1.78 0-2.45-.67-.68-1.76-.68-2.44 0l-5.69 5.72-5.69-5.72c-.67-.68-1.76-.68-2.44 0-.67.68-.67 1.77 0 2.45l5.69 5.72zm2.43 18.49c-10.16 0-18.4-8.28-18.4-18.5s8.24-18.5 18.4-18.5c10.16 0 18.4 8.28 18.4 18.5s-8.23 18.5-18.4 18.5z"></path></g><g><path fill="#FD6141" d="M192.9 216.27c0-18.75-15.2-33.96-33.95-33.96-18.75 0-33.95 15.2-33.95 33.96 0 7.79-2.34 12.89 33.95 78.05 36.43-65.45 33.91-74.03 33.95-78.05z"></path><circle fill="#FFFFFF" cx="158.94" cy="217.07" r="15"></circle></g><g><path opacity="0.2" fill="#764582" d="M431.47 564.64l-13.78 23.86c-2.8 4.84 1.02 10.69 6.98 10.69h135.46c5.39 0 9.2-4.85 7.51-9.56l-8.58-23.86c-1.07-2.98-4.1-4.99-7.51-4.99h-113.1c-2.92 0-5.61 1.49-6.98 3.86z"></path><circle fill="#764582" cx="447.17" cy="558.01" r="12.03"></circle><circle fill="#3E2344" cx="447.17" cy="558.01" r="7.24"></circle><path fill="#FFDCAE" d="M442.42 556.7l4.13-10.88c.22-.58.78-.97 1.4-.97h14.35c1.31 0 1.99 1.56 1.1 2.52l-12.92 13.95a4.07 4.07 0 01-4.24 1.1l-1.29-.42a4.067 4.067 0 01-2.53-5.3z"></path><circle fill="#764582" cx="447.17" cy="558.01" r="2.77"></circle><circle fill="#764582" cx="540.94" cy="558.01" r="12.03"></circle><circle fill="#3E2344" cx="540.94" cy="558.01" r="7.24"></circle><path fill="#FFDCAE" d="M545.69 556.7l-4.13-10.88c-.22-.58-.78-.97-1.4-.97h-14.35c-1.31 0-1.99 1.56-1.1 2.52l12.92 13.95a4.06 4.06 0 004.23 1.1l1.29-.42c2.21-.73 3.36-3.14 2.54-5.3z"></path><circle fill="#764582" cx="540.94" cy="558.01" r="2.77"></circle><path fill="#FD6141" d="M415.7 446.22c-.69 0-1.35-.4-1.64-1.08-4.08-9.44-10.87-24.83-12.09-26.75-1.82-1.32-15.56-6.22-27.99-10.25-.73-.24-1.23-.92-1.23-1.7s.5-1.46 1.23-1.7l22.1-7.16c.33-.11.68-.12 1.02-.03 2.11.58 20.77 5.75 24.78 9.48 3.19 2.96 12.59 22.57 14.44 26.47.42.89.04 1.95-.85 2.38-.89.42-1.95.04-2.38-.85-4.17-8.79-11.57-23.46-13.64-25.39-2.48-2.31-15.07-6.37-22.79-8.5l-16.39 5.31c11.42 3.79 23.22 8.02 24.49 9.71 1.48 1.97 10.73 23.31 12.57 27.57.39.9-.02 1.95-.93 2.34-.22.1-.46.15-.7.15z"></path><path fill="#FFFFFF" stroke="#FD6141" stroke-width="1.8544px" stroke-linecap="round" stroke-linejoin="round" stroke-miterlimit="10" d="M410.87 437.19L430.99 424.7 586.15 432.29 589.71 442.02z"></path><path fill="#FD6141" d="M409.4 437.51l23.48 77.44c.7 2.32 2.88 3.88 5.3 3.81l129.88-4.02a5.363 5.363 0 005.05-4.1l16.59-68.62-180.3-4.51z"></path><path fill="#FF8976" d="M444.33 469.9c8.39 17.46 26.96 20.98 44.63 20.11 37.95-1.88 71.1-16.7 93.32-48.18l-138.16-3.46c-2.04-.03-3.04 13.23-3.15 14.95-.33 5.73.89 11.45 3.36 16.58z"></path><path fill="#FD6141" d="M567.75 557.67c-1.59-6.34-4.85-12.69-7.22-15.9-1.23-1.67-3.24-3.58-7.96-3.58H445.03c-1.69 0-4.73-.28-6.01-2.16-1.2-1.76-.52-4.55.28-6.58 3.17-8.13 6-13.27 6.03-13.32l-4.2.35c-.12.22-1.88 3.3-5.15 11.67-1.6 4.11-1.57 7.44.1 9.88 1.66 2.43 4.76 3.72 8.96 3.72h5.76v2.41c0 1.5 1.22 2.71 2.71 2.71h2.06c1.5 0 2.71-1.21 2.71-2.71v-2.41h71.11v2.41c0 1.5 1.21 2.71 2.71 2.71h2.06c1.5 0 2.71-1.21 2.71-2.71v-2.41h15.72c3.25 0 4.32 1.1 5.08 2.13 2.23 3.03 5.23 9.04 6.63 14.65.32 1.26.23 2.22-.26 2.86-.97 1.28-3.43 1.43-4.16 1.45-24.92.56-78.67.25-107.54.09-8.58-.05-15.09-.09-18.18-.09-4.38 0-7.64-1.25-9.18-3.53-1.48-2.19-1.44-5.41.12-9.3 3.44-8.57 13.54-34.08 13.54-34.08l-3.31-1.31s-10.1 25.5-13.54 34.07c-2.56 6.37-1.29 10.38.23 12.63 2.22 3.29 6.53 5.1 12.13 5.1 2.03 0 5.55.02 10.14.04v2.33c0 1.5 1.21 2.71 2.71 2.71h2.06c1.5 0 2.71-1.21 2.71-2.71v-1.75c.21-.21.32-.33.53-.54 16.46.1 40.98.23 63.67.23 6.16 0 12.17-.01 17.86-.04v2.09c0 1.5 1.21 2.71 2.71 2.71h2.06c1.5 0 2.71-1.21 2.71-2.71v-2.13c7.12-.05 13.5-.13 18.64-.24 1.8-.04 5.1-.46 6.92-2.85 1.18-1.54 1.47-3.52.88-5.89z"></path><path fill="#FF8976" d="M456.57 562.95L462.89 540.57 529.95 540.57 533.6 562.95z"></path><g><circle fill="#764582" cx="439.13" cy="585.05" r="14.14"></circle><circle fill="#3E2344" cx="439.13" cy="585.05" r="8.5"></circle><path fill="#FFDCAE" d="M433.55 583.51l4.85-12.79c.26-.69.92-1.14 1.65-1.14h16.86c1.54 0 2.34 1.83 1.29 2.96l-15.18 16.38a4.755 4.755 0 01-4.98 1.29l-1.52-.5a4.737 4.737 0 01-2.97-6.2z"></path><circle fill="#764582" cx="439.13" cy="585.05" r="3.26"></circle></g><g><circle fill="#764582" cx="547.14" cy="585.05" r="14.14"></circle><circle fill="#3E2344" cx="547.14" cy="585.05" r="8.5"></circle><path fill="#FFDCAE" d="M552.73 583.51l-4.85-12.79c-.26-.69-.92-1.14-1.65-1.14h-16.86c-1.54 0-2.34 1.83-1.3 2.96l15.18 16.38a4.76 4.76 0 004.98 1.29l1.52-.5c2.59-.83 3.94-3.66 2.98-6.2z"></path><path fill="#764582" d="M543.88 585.05c0 1.8 1.46 3.25 3.25 3.25 1.8 0 3.26-1.46 3.26-3.25 0-1.8-1.46-3.26-3.26-3.26a3.265 3.265 0 00-3.25 3.26z"></path></g><g><circle fill="#FFD25A" cx="584.3" cy="435.71" r="31.99"></circle><path fill="#764582" d="M590.24 418.67v28.22h5.36c1.05 0 1.5.75 1.5 2.51v.85c0 1.75-.45 2.51-1.5 2.51h-19.44c-1.05 0-1.5-.75-1.5-2.51v-.85c0-1.76.45-2.51 1.5-2.51h6.66v-22.5l-6.81 1c-1.31 0-1.61-2.81-1.61-4.21 0-.75.45-1.25 1.3-1.4l12.48-2.3c.81-.01 2.06.59 2.06 1.19z"></path></g><g><path fill="#FFBE57" d="M456.15 411.63L456.15 436.83 515.65 438.38 515.65 409.05z"></path><path fill="#F99441" d="M515.65 409.05L515.65 438.38 544.01 439.28 544.01 414.17z"></path><path fill="#FFD25A" d="M454.41 406.86L517.04 404.3 517.04 412.5 454.41 415.1z"></path><path fill="#FFBE57" d="M517.04 412.5L546.07 417.47 546.07 409.7 517.04 404.3z"></path></g><g><ellipse opacity="0.2" fill="#764582" cx="318.6" cy="584.82" rx="86.06" ry="4.95"></ellipse></g><g><path fill="#FFB072" d="M360.16 528c1.39 13.83 13.02 34.07 17.53 45.36 1.33 3.33 7.62 1.47 6.91-2.04-2.42-11.96-4.09-36.17-5.19-48.52-1.31-14.54-20.58-7.97-19.25 5.2z"></path><path fill="#ED0C37" d="M377.86 573.31s-1.34 3.8.95 8.92c-.42.19-.1 1.89.65 2.25.88.43 7.26.32 8.56-.69.29-.48-.04-1.15-.04-1.15s1.6.61 6.14-.25c4.54-.86 6.97-2.17 8.73-3.29.54-.34.16-1.55-.44-1.35 0 0-.39-3.15-3.02-2.98-5.4.35-9.27-1.85-12.03-3.52-1.37-.83-2.74-1.52-3.59-1.56-2.19-.1-5.01 1.18-5.91 3.62z"></path><g><path fill="#552F5E" d="M314.9 429.01s19.88 35.77 26.45 50.39c6.57 14.62 14.88 50.72 14.88 50.72s16.35 3.44 24.92-4.23c0 0-2.75-38.09-7.41-55.2s-22.39-59.1-22.39-59.1c-7.12-15.08-43.57 2.34-36.45 17.42z"></path></g><g><path fill="#DD4026" d="M329.07 340.83c3.28 15.12 8.37 35.27 19.6 45.1 11.22 9.84 35.59 15.29 36.75 15.29 2.71.63 5.62-13.69 3.47-15.35-2.15-1.65-21.32-9.39-24.72-12.67-6.08-5.87-3.49-41.58-10.38-49.38-6.89-7.79-28.54-.61-24.72 17.01z"></path><path fill="#F29353" d="M390.32 388.46s8.54 7.1 9.05 9.03c.51 1.93.3 5.12-.4 5.93s-5.92 3.42-7.91 2.05c-2-1.37-4.74-4.49-4.74-4.49l.94-3.49s-.64 2.39-5.82-.85c-5.17-3.25 3.96-13.09 8.88-8.18z"></path></g><g><path fill="#FFB072" d="M271.29 517.73c-10.3 9.34-19.68 30.71-26.08 41.05-1.89 3.05 3.35 7 5.75 4.35 8.18-9.05 26.67-24.77 35.94-33 10.92-9.69-5.81-21.28-15.61-12.4z"></path><path fill="#ED0C37" d="M246.36 557.74s-3.92.94-6.96 5.66c-.38-.25-1.64.95-1.54 1.77.12.97 3.69 6.26 5.24 6.8.56-.03.94-.66.94-.66s.36 1.67 3.56 5.01c3.19 3.34 5.62 4.66 7.52 5.53.58.27 1.39-.71.9-1.1 0 0 2.43-2.04.85-4.16-3.23-4.33-3.5-8.78-3.61-12-.05-1.6-.23-3.13-.65-3.86-1.1-1.9-3.71-3.57-6.25-2.99z"></path><g><path fill="#764582" d="M293.84 415.58s2.75 52.45-3.13 66.19c-5.89 13.74-21.19 36.1-21.19 36.1s4.2 13.02 19.71 14.88c0 0 23.39-16.47 32.57-41.42 9.18-24.95 16.87-52.41 13.15-72.76-2.08-11.43-38.16-19.7-41.11-2.99z"></path></g></g><g><path fill="#FFFFFF" d="M352.56 325.02c4.04 8.04-3.17 38.55-3.17 51.89 0 10.84 1.78 28.97 3.39 35.81.43 1.82-.38 3.69-2 4.64-6.24 3.67-14.54 5.6-19.66 6.09-19.74 1.9-29.28-1.56-33.77-3.26a5.484 5.484 0 01-3.49-5.94c1-6.67 3.81-22.97 1.4-37.98-3.15-19.63-8.29-46.33.92-54.57 9.21-8.24 26.46-13.37 26.46-13.37s24.93 6.76 29.92 16.69z"></path><path fill="#3E2344" d="M326.8 299.96s-4.43-.74-10.5-8.28c-3.98-4.95-9.52-27.33 8.04-30.72 17.56-3.39 22.73 8.48 23.53 16.23.8 7.76-7.91 14.15-11.85 16.95-3.95 2.81-9.22 5.82-9.22 5.82z"></path><path fill="#FFB072" d="M322.52 290.95s-.53 6.78-2.54 12.07-4.15 6.91-6.67 9.16 10.09 15.64 21.31 19.04c0 0 8.15-9.92 4.41-15.45-3.74-5.53-6.69-6.02-5.35-13.4 1.17-6.44 1.86-10.01 1.86-10.01l-13.02-1.41z"></path><path fill="#FFB072" d="M322.52 290.95s-.56 5.01 1.45 7.16c2.02 2.15 5.64 7.33 13.88 6.73 11.01-.81 6.73-18.28 6.73-18.28s1.15-6.72 0-12.24-12.05-8.41-20.93-5.71c0 0-2.55 2.43-1.57 13.28 0 0-1.64-1.97-4.21-.57-1.95 1.06-2.16 3.59-1.5 5.96.8 2.85 3.78 5.31 6.15 3.67z"></path><path fill="#3E2344" d="M322.77 286.06s-1.08 6.78-.92 9.8c.16 3.02 3.15 12.44 16.94 11.6 13.69-.83 8.79-15.67 6.47-16.69.09.99-.4 2.58-1.37 3.27-.56-1.39-2.17-2.37-4.42-1.9-1.96-1.11-4.21-.42-6.57.99l-1.7 1.19c-4.26-1.05-6.47-3.85-7.01-8.08l-1.42-.18z"></path><path fill="#FFFFFF" d="M334.63 294.58s7.24 0 7.41.49-.86 1.48-3.71 1.48c-2.84 0-3.7-1.97-3.7-1.97z"></path><g fill="#3E2344"><path d="M335.58 285.64c-.05.61-.85.66-1.83.58-.98-.08-1.76-.26-1.71-.87.05-.61.89-1.04 1.86-.96.98.08 1.73.64 1.68 1.25zM329.1 282.72c-.03.09 2.79-.88 3.68-.87.89.01 4.26.55 4.54.22.28-.33.5-1.46.5-1.46s-4.59-.45-5.54-.21c-.94.24-2.93 1.54-3.18 2.32z" fill="#3E2344"></path></g><g fill="#3E2344"><path d="M344.55 286.39c-.05.61-.85.65-1.83.57-.98-.08-1.76-.26-1.71-.87.05-.61.89-1.04 1.86-.96.98.09 1.73.65 1.68 1.26zM345.8 284.12c.01.09-1.21-1.46-1.81-1.57-.61-.11-3.53.13-3.67-.23-.15-.36-.14-1.51-.14-1.51s3.9.29 4.51.66c.6.37 1.04 1.84 1.11 2.65z" fill="#3E2344"></path></g><path fill="#3E2344" d="M323.76 286.89c.7-.48 1.86-4.57.63-8.51-1.1-3.52 1.68-6.13 3.64-6.35 2.25-.25 9.53 1.82 12.41 1.47 6.31-.77 11.2-2.64 11.19-3.8-.01-1.17-4.63.05-4.63.05s7.04-1.79 6.4-7.68c0 0-5.29.39-10.02-1.23-4.73-1.62-16.04-3.5-22.05.97-3.94 2.92-6.73 12.46-1.52 17.3 2.38 2.2 2.6 8.69 3.95 7.78z"></path><path opacity="0.7" fill="#A1ABAD" d="M340.17 325.15s-3.01 59.73-2.35 65.35c.66 5.62-.43 27.2 13.2 31.36 0 0-6.09-31.16-5.23-49.88.87-18.72-5.62-46.83-5.62-46.83z"></path><path fill="#FD6141" d="M335.81 311.63s5.87 18.7 5.54 43.09c-.33 24.38-1.31 74.4 16.73 73.23 0 0-7.6-30.73-7.14-41.89.46-11.16 6.51-52.18 4.29-59.21-3.22-10.18-19.42-15.22-19.42-15.22z"></path><g><path fill="#FD6141" d="M315.1 310.75s12.17 19.04 16.06 51.3c1.86 15.38-.23 39.76-2.55 55.32-2.67 17.92-37.75 17.89-40 13.19-2.25-4.7 7.8-34.46 4.66-51.37-3.13-16.91-4.98-44.52-1.24-53.6 3.76-9.08 23.07-14.84 23.07-14.84z"></path></g></g><g><path fill="#FFB072" d="M378.26 393.47s10.81 2.53 12.13 4.03c1.32 1.5 3.53 6.64 3.27 7.68-.26 1.03-5.98 3.29-8.37 2.96-2.4-.33-5-1.68-5-1.68.36-1.28.26-2.42-1.07-2.83-1.4-.44-2.9.32-5.34 1.42-5.57 2.5-2.21-13.77 4.38-11.58z"></path><path fill="#FF8976" d="M291.56 341.13c2.91 16.11 23.51 40.15 32.33 47.71 7.73 6.63 45.9 17.89 47.58 17.98 3.91.83 8.89-13.25 5.85-15.06-3.04-1.82-37.06-17.47-40.74-21.57-3.69-4.1-17.2-40.48-26.79-48.79-9.6-8.31-21.51 1.55-18.23 19.73z"></path></g></g></g><g><ellipse opacity="0.2" fill="#764582" cx="721.13" cy="583.08" rx="86.06" ry="4.95"></ellipse><path fill="#FD6141" d="M736.98 563.7s3.57 3.13 4.17 4.01c.59.88 2.89 7.37 2.89 7.37-.49.94-2.09 2.3-3.59 2.48l-2.89-3.72s-1.48 6.51-2.98 8.63c-1.81 2.56-12.17 5.5-13.72 4.73 0 0-1.91-3.79 1.34-5.88 6-3.85 6.15-11.91 6.15-11.91-.89-4.75 4.31-8.37 8.63-5.71z"></path><clipPath id="j"><use xlink:href="#i" overflow="visible"></use></clipPath><path fill="#FFB072" d="M714 383.29c-.05-.63-16.6 73.1-16.01 92.92.37 12.35 23.46 69.18 30.35 93.2 1.32 4.61 8.49-.8 7.92-5.58-2.7-22.99-2.53-35.08-12.68-85.04-1.58-7.78 26.34-77.52 24.13-93.85-2.2-16.35-24.99-25.24-33.71-1.65z"></path><g><path fill="#FD6141" d="M760.77 568.49s2.23 4.19 2.47 5.23c.24 1.03.08 7.92.08 7.92-.79.7-2.78 1.41-4.24 1.04l-1.38-4.51s-2.13 4.4-4.28 5.85c-2.6 1.75-11.85 3.89-13.4 3.12 0 0-2.14-4.13 1.3-5.89 8.59-4.41 9.35-10.5 9.35-10.5.86-4.74 7.01-6.28 10.1-2.26z"></path><clipPath id="l"><use xlink:href="#k" overflow="visible"></use></clipPath><path fill="#FFB072" d="M730.35 388.05c-.13 6.42.86 74.87 6.79 93.6 3.69 11.67 11.45 67.71 14.07 86.86.96 6.99 8.54 6.99 9.09.31 2.05-24.8 10.06-59.28.96-89.58-2.27-7.57 8.27-85.72 1.73-100.6-6.53-14.88-32.16-14.32-32.64 9.41z"></path></g><g><path fill="#FD6141" d="M714.74 375.27L714 382s-12.04 30.52-17.22 80.06c12.84-3.56 37.09 8.3 73.06 3.25 0 0 14.23-63.44-10.52-91.66-24.76-28.23-43.28-13.32-44.58 1.62z"></path></g><g><path fill="#FFB072" d="M647.83 357.35c-.13-.01-6.95-.42-8.13-.1-1.09.3-3.88 1.65-4.69 2.06-1.89.95-.05 2.3 1.38 2.17 2.02-.17 2.77-.54 3.61-.41.47.07.86.18 1.23.31-.75.63-3.85 2.81-6.23 3.73-1.34.52-2.55.87-4.48 1.49-.87.28-.72 1.42.26 1.6.7.13 3.09.14 5.19-.66.83-.31 1.67-.66 2.44-1.02.02.08-1.79 1.13-2.66 1.53-1.27.58-2.55.81-4.41 1.5-.85.31-.62 1.31.37 1.45.27.04.77.08 1.41.07-.35.45-.1 1.16.69 1.26.37.05 1.14-.02 2.1-.17.12.23.36.48.75.48 6.94.02 11.08-3.77 14.88-4.65 6.05-6.1.82-9.77-3.71-10.64z"></path><path fill="#552F5E" d="M728.55 307.91c-4.72-2.68-12.76-3.56-19.11 5.48-6.34 9.04-9.14 30.3-15.86 37.49-4.01 4.29-40.43 5.53-43.02 6.83-1.69.85-.68 8.95-.13 10.45 1.16 3.15 40.58 4.83 51.31.6 10.72-4.22 36.93-55.11 26.81-60.85z"></path><path fill="#3E2344" d="M713.3 267.66c.29-3.3.27-8.78 4.2-13.54s19.25-9.52 27.28-3.96c9.87 6.83 6.65 13.23 18.95 18.2 12.31 4.96 8.58 10.47 5.07 16.1-3.52 5.62-2.28 6.55 3.41 12.45 5.69 5.9 13.23 20.58 0 28.96-13.24 8.38-41.9 2.89-53.38-8.17-11.48-11.06 2.07-18.35-1.12-24.95-3.19-6.59-6.93-5.14-6.93-12.15.01-5.38 2.08-7.85 2.52-12.94z"></path><path fill="#764582" d="M738.13 300.07s-26.1 4.35-26.98 12.32c-.37 3.34 4.19 10.07 3.01 13.49-1.72 5-4.45 7.9.59 19.77 4.08 9.59-2.92 29.45-2.71 31.81.79 8.83 14.81 10.45 20.56 10.31 8.19-.2 31.76-5.47 31.76-10.63 0-4.48-10.91-14.09-11.97-21.76-1.06-7.67 18.91-38.42 14.94-45.11-7.67-12.96-29.2-10.2-29.2-10.2z"></path><path fill="#FFB072" d="M763.18 382.38c-.13.03-6.74 1.73-7.77 2.4-.95.62-3.19 2.76-3.84 3.39-1.5 1.48.66 2.2 1.98 1.65 1.87-.79 2.47-1.36 3.31-1.49.47-.08.88-.09 1.26-.08-.51.83-2.8 3.86-4.79 5.46-1.11.9-2.16 1.61-3.81 2.79-.74.53-.25 1.57.74 1.45.7-.09 2.98-.81 4.74-2.21.7-.56 1.39-1.14 2.02-1.72.04.07-1.36 1.62-2.07 2.27-1.03.94-2.18 1.55-3.74 2.77-.71.56-.19 1.43.8 1.27.27-.05.76-.16 1.36-.36-.19.54.26 1.13 1.04.99.37-.07 1.08-.37 1.95-.81.18.19.48.31.86.23 4.11-.94 11.15-6.85 12.74-8.98 3.89-7.69-2.21-9.58-6.78-9.02z"></path><path fill="#764582" d="M757.48 303.85c-4.22 3.41-7.99 10.57-1.91 19.79 6.08 9.22 23.4 18.8 27.63 27.69 2.52 5.3-20.88 28.06-20.92 30.96s4.4 9.96 6.1 10.79c3.02 1.46 35.88-30.44 35.88-41.97.01-11.53-37.72-54.57-46.78-47.26z"></path><path fill="#FFB072" d="M742.11 279.93s.53 6.78 2.53 12.07c2 5.29 4.15 6.91 6.68 9.16 2.52 2.25-10.09 15.65-21.32 19.04 0 0-8.14-9.92-4.41-15.45 3.73-5.53 6.69-6.02 5.35-13.4-1.16-6.44-1.86-10.01-1.86-10.01l13.03-1.41z"></path><g><path fill="#FFB072" d="M742.11 279.93s-1.82 13.79-14.78 12.81c-6.5-.49-9.83-13.84-7.29-17.2 0 0-1.15-6.72 0-12.24 1.15-5.52 12.05-8.42 20.93-5.71 0 0 2.55 2.43 1.57 13.28 0 0 1.64-1.97 4.21-.56 1.95 1.06 2.16 3.59 1.5 5.96-.79 2.84-3.76 5.3-6.14 3.66z"></path><path fill="#E57E55" d="M743.03 278.88l.97-2.58-1.65-.69s1.07-4.82 3.76-3.04c2.21 1.46-.32 7.29-3.08 6.31z"></path><g><path fill="#FD6141" d="M723.92 284.14s.88-2.15 7.68-1.44c-.77 3.59-7.14 5.36-7.68 1.44z"></path><g fill="#E57E55"><path d="M723.92 284.14s4.11.02 7.68-1.44M723.92 284.14s.49-.03 1.22-.12c.37-.03.79-.11 1.25-.16.45-.07.94-.13 1.42-.23s.97-.16 1.41-.29c.44-.12.87-.19 1.22-.3.7-.21 1.18-.35 1.18-.35s-.45.2-1.13.48c-.35.14-.76.25-1.21.38-.44.14-.93.21-1.41.32-.97.17-1.96.27-2.7.28-.76.03-1.25-.01-1.25-.01z" fill="#E57E55"></path></g><g fill="#3E2344"><path d="M720.09 275.37c.05.61.85.65 1.83.57.98-.08 1.76-.26 1.71-.87-.05-.61-.88-1.04-1.86-.96-.98.09-1.74.65-1.68 1.26zM718.06 272.82c-.03.09 2.27-1.96 2.88-1.93.62.03 2.91.89 3.14.57.23-.32.45-1.02.45-1.02s-3.23-.61-3.91-.4c-.67.23-2.31 2.02-2.56 2.78z" fill="#3E2344"></path></g><g fill="#3E2344"><path d="M729.06 274.62c.05.61.85.65 1.83.57.98-.08 1.76-.26 1.71-.87-.05-.61-.89-1.04-1.87-.96-.97.09-1.72.65-1.67 1.26zM734.87 270.73c.05.08-3.05-1.19-3.82-.99-.77.2-3.24 1.44-3.57 1.19s-.7-.9-.7-.9 3.62-1.23 4.5-1.19c.88.03 3.17 1.19 3.59 1.89z" fill="#3E2344"></path></g></g></g><path fill="#3E2344" d="M738.13 258.58c-10.8 1.14-15.58 11.31-23.49 11.31-4.89-8.51 10.06-30.09 27.7-13.33 8.09 7.68.79 13.57.79 13.57l-1.8 6.21s.16-4.67-1.5-6.45c-4.88-5.26-1.7-11.31-1.7-11.31z"></path></g></g><g><path fill="#FFBE57" d="M641.96 284.39l-122.99-30.27c-5.46-1.34-8.8-6.86-7.45-12.32l16.69-67.81c1.34-5.46 6.86-8.8 12.32-7.46l122.99 30.27c5.46 1.35 8.8 6.86 7.46 12.32l-16.69 67.81c-1.35 5.47-6.87 8.81-12.33 7.46z"></path><path transform="rotate(-166.17 586.454 244.877)" fill="#764582" d="M512.94 236.09H659.96V253.65H512.94z"></path><path fill="#764582" d="M579.09 195.22l-43.14-10.62a4.088 4.088 0 01-2.99-4.95l.14-.59a4.082 4.082 0 014.94-2.99l43.14 10.61c2.19.54 3.53 2.75 2.99 4.95l-.14.59a4.076 4.076 0 01-4.94 3zM616.92 213.57l-85.05-20.93a2.05 2.05 0 01-1.5-2.47l.07-.29c.27-1.1 1.38-1.77 2.47-1.5l85.05 20.93c1.1.27 1.77 1.38 1.5 2.47l-.07.29a2.034 2.034 0 01-2.47 1.5z"></path><g fill="#FFFFFF"><path d="M599.49 229.75l-2.77-.68a2.875 2.875 0 01-2.1-3.48l.1-.42a2.875 2.875 0 013.48-2.1l2.77.68c1.54.38 2.48 1.94 2.1 3.48l-.1.42a2.88 2.88 0 01-3.48 2.1zM610.12 232.37l-2.77-.68a2.875 2.875 0 01-2.1-3.48l.1-.41a2.875 2.875 0 013.48-2.1l2.77.68c1.54.38 2.48 1.94 2.1 3.48l-.1.41a2.883 2.883 0 01-3.48 2.1zM620.75 234.98l-2.77-.68a2.875 2.875 0 01-2.1-3.48l.1-.41a2.865 2.865 0 013.47-2.1l2.77.68c1.54.38 2.48 1.94 2.1 3.48l-.1.42c-.37 1.53-1.93 2.47-3.47 2.09z" fill="#FFFFFF"></path></g></g></svg>