<svg xmlns:xlink="http://www.w3.org/1999/xlink" xmlns="http://www.w3.org/2000/svg" id="Layer_1" x="0px" y="0px" viewBox="0 0 664 110" xml:space="preserve" width="664"  height="110" ><style>.st0{enable-background:new}.st1{fill:#265a2c}.st2{fill:#2b803e}.st3{fill:#ababab}</style><g class="st0"><g class="st0"><path class="st1" d="M148 64.5L147.1 63.6" fill="#265A2C"></path></g></g><path class="st2" d="M171.8 33.7h26.5l-39.7 46.9v23.2h-21.2V80.6L94.9 33.7H122l16.6 20.2c2.2 2.4 8 8.6 9.4 10.6M244.2 33.7c33.2-.4 50 10.2 50.3 34.6.3 24.4-16.3 35.1-49.5 35.5-33.3.4-50-9.9-50.3-34.3-.3-24.3 16.2-35.4 49.5-35.8zm.6 52.8c21.2-.3 28.8-3.2 28.7-17.9-.2-14.7-7.9-17.3-29.1-17.1-21.2.3-28.8 3.1-28.7 17.8.2 14.7 7.9 17.4 29.1 17.2" fill="#2B803E"></path><path class="st3" d="M389.6 33.7L376.2 53.1 352.4 53.1 352.4 103.8 330.7 103.8 330.7 53.1 298.6 53.1 312.1 33.7z" fill="#ABABAB"></path><path class="st3" d="M502 68.8c.1 9.7 8.7 16.2 20.2 16.1h47.9l-13.4 18.9h-34.3c-23.7.3-41.3-15.9-41.5-35.7-.2-20 17.1-33.7 40.7-34l48.5-.6-13.4 18.6h-34.9c-11.4.2-19.9 6.9-19.8 16.7z" fill="#ABABAB"></path><path class="st3" d="M659.7 33.6L659.7 103.8 638.7 103.8 638.7 77 598.1 77 598.1 103.8 576.9 103.8 576.9 33.6 598.1 33.6 598.1 59.3 638.7 59.3 638.7 33.6z" fill="#ABABAB"></path><path class="st3" d="M396.4 53.1L396.4 33.7 475.7 33.7 462 53.1" fill="#ABABAB"></path><path class="st2" d="M396.4 77.5L396.4 62 471.7 62 459.7 77.5" fill="#2B803E"></path><path class="st3" d="M475.7 86.1L462 103.8 396.4 103.8 396.4 86.1" fill="#ABABAB"></path><g class="st0"><defs><path id="SVGID_1_" class="st0" d="M80.4 85.5l-.9-1c-1.9-2.4-4.8-6.6-7-9.8l.9 1c2.2 3.3 5.1 7.4 7 9.8z"></path><path id="SVGID_1_" class="st0" d="M80.4 85.5l-.9-1c-1.9-2.4-4.8-6.6-7-9.8l.9 1c2.2 3.3 5.1 7.4 7 9.8z"></path></defs><clipPath id="SVGID_2_"><use xlink:href="#SVGID_1_" overflow="visible"></use></clipPath><g clip-path="url(#SVGID_2_)"><path class="st1" d="M80.4 85.5l-.9-1c-1.9-2.4-4.8-6.6-7-9.8l.9 1c2.2 3.3 5.1 7.4 7 9.8" fill="#265A2C"></path></g></g><path fill="#25572B" d="M73.4 75.7L72.5 74.7 60 56.8 60.9 57.8z"></path><path class="st2" d="M80.4 85.7c-1.9-2.4-4.8-6.7-7-10L60.9 57.8l-31.5 46h-25l40.7-59H61V33.7c6.4-.1 10.5 3.2 13.5 7.5l43.4 62.6H38.6l12.6-18.1" fill="#2B803E"></path><path class="st3" d="M43.1 26.4H57.7V41.2H43.1z" fill="#ABABAB"></path><path class="st3" d="M55.5 6.1H66V16.6H55.5z" fill="#ABABAB"></path></svg>